<?xml version="1.0" encoding="UTF-8"?>
<svg width="68px" height="68px" viewBox="0 0 68 68" version="1.1" xmlns="http://www.w3.org/2000/svg" xmlns:xlink="http://www.w3.org/1999/xlink">
    <!-- Generator: Sketch 55.2 (78181) - https://sketchapp.com -->
    <title>bordro-icon</title>
    <desc>Created with Sketch.</desc>
    <g id="bordro-icon" stroke="none" stroke-width="1" fill="none" fill-rule="evenodd">
        <g transform="translate(0.000000, 6.000000)" id="Page-1_00000077319684944839586090000000825040873028412297_">
            <g>
                <g id="fiyatlar_00000001647986972419446250000005235908462384617897_">
                    <g id="Group-2_00000131348095913608410070000013403191101713222821_">
                        <g id="Group-7_00000145773660753389398580000004339012514794381212_">
                            <polygon id="Fill-112_00000025409532382689503470000017865519807684203904_" fill="#82EBC1" points="67 61.9 1 61.9 34 3"></polygon>
                            <g id="payment_00000083057100639161493580000004132650909849103499_" fill-rule="nonzero">
                                <g id="Group" transform="translate(0.970149, 0.124028)">
                                    <g id="Group_00000151543781753101698290000015474348288239499910_" transform="translate(0.970149, 4.607316)">
                                        <path d="M9.5,41.1 C6.6,33.2 3.8,25.5 0.9,17.6 C3.9,15.4 7.1,13.6 10.5,12.2 C15.9,10 21.5,9.1 27.3,8.9 C36.5,8.5 45,5.7 52.7,0.7 C52.9,0.5 53.2,0.4 53.6,0.1 C56.5,7.9 59.4,15.7 62.4,23.6 C60.4,24.8 58.4,26.1 56.3,27.1 C50.3,30.2 44,31.8 37.3,32.1 C27.4,32.4 18.2,35.3 10,40.8 C9.8,40.9 9.7,41 9.5,41.1 Z M32.1,14.2 C28.2,14.2 25,17.3 25,21.1 C25,24.9 28.1,28 31.9,28.1 C35.8,28.1 38.9,25 38.9,21.2 C39,17.3 35.9,14.2 32.1,14.2 Z M42.8,16.4 C42.8,17.7 43.9,18.7 45.1,18.7 C46.4,18.7 47.4,17.6 47.4,16.3 C47.4,15 46.3,14 45,14 C43.8,14 42.8,15.1 42.8,16.4 Z M18.9,23.6 C17.6,23.6 16.6,24.6 16.6,25.9 C16.6,27.2 17.6,28.2 18.9,28.3 C20.2,28.3 21.2,27.3 21.2,26 C21.2,24.6 20.2,23.6 18.9,23.6 Z" id="Shape_00000042728805961395079330000018329567492929675915_" fill="#FFFFFF"></path>
                                        <path d="M32.1,14.2 C35.9,14.2 39,17.3 39,21.1 C39,24.9 35.8,28 32,28 C28.2,28 25.1,24.8 25.1,21 C25,17.2 28.2,14.1 32.1,14.2 Z M32,18.8 C30.7,18.8 29.7,19.8 29.7,21.1 C29.7,22.4 30.8,23.5 32.1,23.4 C33.4,23.4 34.4,22.3 34.4,21.1 C34.3,19.8 33.3,18.8 32,18.8 Z" id="Shape_00000111172223800578175430000013832349158573176980_" fill="#162A4C"></path>
                                        <path d="M42.8,16.4 C42.8,15.1 43.8,14.1 45.1,14 C46.4,14 47.4,15 47.5,16.3 C47.5,17.6 46.5,18.6 45.2,18.7 C43.9,18.7 42.9,17.7 42.8,16.4 Z" id="Path_00000120533696968145101950000005105904518351924100_" fill="#162A4C"></path>
                                        <path d="M18.9,23.6 C20.2,23.6 21.2,24.6 21.2,25.9 C21.2,27.2 20.1,28.2 18.9,28.2 C17.6,28.2 16.6,27.1 16.6,25.8 C16.5,24.5 17.6,23.5 18.9,23.6 Z" id="Path_00000009577482678633870210000010527905182876913835_" fill="#162A4C"></path>
                                        <path d="M32,18.8 C33.3,18.8 34.3,19.8 34.3,21.1 C34.3,22.4 33.3,23.4 32,23.4 C30.7,23.4 29.6,22.3 29.6,21.1 C29.7,19.8 30.7,18.8 32,18.8 Z" id="Path_00000037673744144098296660000011126291588317990296_" fill="#FFFFFF"></path>
                                    </g>
                                    <path d="M12.9,49.6 C13,49.6 13,49.5 13.1,49.5 C13.7,49.1 14,48.9 14.6,48.4 C20.6,44 27.4,41.2 34.8,40.4 C37,40.2 39.2,40.2 41.4,39.9 C49.8,38.9 57.5,35.9 64.3,30.7 C65.7,29.6 65.9,28.9 65.3,27.3 C65.1,26.9 65,26.5 64.8,26 C61.9,18.4 59,10.5 56,2.6 C55.7,1.7 55.2,1.1 54.3,0.9 C53.5,0.7 52.8,1 52.1,1.5 C45.8,6.4 38.6,9.2 30.7,9.9 C28.2,10.1 25.6,10.2 23.1,10.5 C15.3,11.6 8.3,14.6 2.1,19.4 C0.6,20.6 0.4,21.2 1.1,23 C4,31.2 6.9,39.4 9.8,47.5 C10.1,48.5 10.6,49.2 11.6,49.6 L11.6,49.6 C11.7,49.6 11.8,49.7 11.9,49.7 C12.2,49.8 12.5,49.7 12.9,49.6 L12.9,49.6 Z M55.2,31.2 C49.9,34 44.2,35.5 38.1,35.7 C29.2,36 21,38.6 13.6,43.5 C13.5,43.6 13.4,43.6 13.2,43.8 C10.6,36.7 8.1,29.6 5.5,22.5 C8.2,20.5 11.1,18.9 14.1,17.6 C18.9,15.6 24,14.8 29.2,14.6 C37.5,14.2 45.1,11.7 52,7.2 C52.2,7.1 52.5,6.9 52.8,6.7 C55.4,13.8 58,20.8 60.7,28 C58.8,29.1 57.1,30.2 55.2,31.2 Z" id="Shape_00000132050488014588227620000008014509253889253303_" fill="#162A4C"></path>
                                </g>
                            </g>
                        </g>
                    </g>
                </g>
            </g>
        </g>
    </g>
</svg>