<svg xmlns="http://www.w3.org/2000/svg" width="65" height="66" viewBox="0 0 65 66">
    <g fill="none" fill-rule="evenodd">
        <path fill="#F37071" d="M14.496 65.658h50.31V15.804zM14.496 65.657l50.31-49.853-50.31 49.853z"/>
        <path fill="#FFF" d="M4.814 51.011h11.91v-29.23H4.813zM21.54 51.011h11.9V13.272h-11.9zM38.255 51.011h11.9V4.771h-11.9z"/>
        <path fill="#162A4C" d="M38.255 51.011h11.9V4.771h-11.9v46.24zm-16.716 0h11.9V13.272h-11.9v37.74zm-16.725 0h11.91v-29.23H4.813v29.23zM52.562 0H35.847a2.398 2.398 0 0 0-2.407 2.385v6.116H19.13a2.398 2.398 0 0 0-2.407 2.386v6.123H2.407A2.393 2.393 0 0 0 0 19.395v34.002a2.393 2.393 0 0 0 2.407 2.386h50.155a2.393 2.393 0 0 0 2.407-2.386V2.385A2.399 2.399 0 0 0 52.562 0z"/>
    </g>
</svg>
