<svg xmlns="http://www.w3.org/2000/svg" xmlns:xlink="http://www.w3.org/1999/xlink" width="70" height="67" viewBox="0 0 70 67">
    <defs>
        <path id="a" d="M.703.064h51.43V51.2H.702z"/>
    </defs>
    <g fill="none" fill-rule="evenodd">
        <path fill="#F9CD92" d="M50.444 0C22.584 0 0 22.455 0 50.155h50.444V0z"/>
        <path fill="#FFF" d="M55.681 31.658c0 3.544-1.609 6.84-4.417 9.04a11.47 11.47 0 0 1-7.145 2.456c-2.624 0-5.093-.848-7.145-2.456-2.816-2.2-4.425-5.496-4.425-9.04 0-6.344 5.189-11.504 11.57-11.504 6.373 0 11.562 5.16 11.562 11.504"/>
        <g transform="translate(17.701 15.29)">
            <mask id="b" fill="#fff">
                <use xlink:href="#a"/>
            </mask>
            <path fill="#162A4C" d="M26.418 4.864c6.372 0 11.562 5.16 11.562 11.504 0 3.544-1.61 6.84-4.417 9.04a11.475 11.475 0 0 1-7.145 2.456c-2.624 0-5.093-.848-7.145-2.456-2.816-2.2-4.425-5.496-4.425-9.04 0-6.344 5.189-11.504 11.57-11.504zM5.668 46.4c.812-7.128 5.237-13.296 11.81-16.368.378.248.757.472 1.15.68.178.096.347.192.524.272.346.176.708.336 1.07.48a15.005 15.005 0 0 0 2.784.848c.676.144 1.368.24 2.068.296.217.016.435.032.652.04.225.008.459.016.692.016.233 0 .467-.008.691-.016.218-.008.435-.024.653-.04.7-.056 1.39-.152 2.067-.296.218-.048.443-.096.66-.152.217-.056.435-.112.652-.176.217-.064.426-.136.644-.208.144-.048.297-.104.442-.16.129-.048.258-.096.377-.152a14.02 14.02 0 0 0 1.055-.472c.177-.088.362-.176.54-.28.394-.208.772-.432 1.15-.68 6.574 3.072 10.999 9.24 11.82 16.368H5.666zM39.17 26.608a16.144 16.144 0 0 0 3.637-10.24c0-8.992-7.354-16.304-16.39-16.304-9.044 0-16.398 7.312-16.398 16.304a16.14 16.14 0 0 0 3.637 10.24C5.683 31.096.703 39.472.703 48.8c0 1.328 1.078 2.4 2.414 2.4h46.602a2.41 2.41 0 0 0 2.414-2.4c0-9.328-4.989-17.704-12.962-22.192z" mask="url(#b)"/>
        </g>
        <path fill="#FFF" d="M64.87 61.69H23.368c.813-7.128 5.238-13.296 11.812-16.368.377.248.756.472 1.15.68.178.096.347.192.524.271.345.177.708.336 1.07.48.128.056.248.105.377.153.571.216 1.151.4 1.739.544a16.368 16.368 0 0 0 3.387.488c.225.007.459.016.692.016.233 0 .467-.009.691-.016.218-.008.435-.024.653-.04.7-.057 1.39-.153 2.067-.296.218-.048.443-.096.66-.152.218-.056.435-.112.652-.177.217-.064.426-.135.644-.207.145-.048.297-.104.442-.16.129-.048.258-.097.378-.152a14.02 14.02 0 0 0 1.054-.472c.177-.088.363-.176.54-.28.394-.208.772-.432 1.15-.68 6.573 3.072 10.998 9.24 11.82 16.368"/>
    </g>
</svg>
