<?xml version="1.0" encoding="UTF-8"?>
<svg width="67px" height="68px" viewBox="0 0 67 68" version="1.1" xmlns="http://www.w3.org/2000/svg" xmlns:xlink="http://www.w3.org/1999/xlink">
    <!-- Generator: Sketch 63.1 (92452) - https://sketch.com -->
    <title>Group 9</title>
    <desc>Created with Sketch.</desc>
    <g id="Page-1" stroke="none" stroke-width="1" fill="none" fill-rule="evenodd">
        <g id="Homepage" transform="translate(-776.000000, -1720.000000)">
            <g id="Group-26" transform="translate(675.000000, 1670.000000)">
                <g id="Group-9" transform="translate(101.000000, 50.000000)">
                    <polygon id="Fill-1" fill="#296FFF" points="0 67.27576 53.6306627 67.27576 53.6306627 17.11976 0 17.11976"></polygon>
                    <g id="Group-8" transform="translate(11.120482, 0.075760)">
                        <path d="M27.5761947,51.17224 C15.0102782,51.17224 4.79084048,40.93224 4.79084048,28.34824 C4.79084048,18.86824 10.7380742,10.26824 19.592259,6.94824 C22.1471184,5.99624 24.8305192,5.51624 27.5761947,5.51624 C30.3226686,5.51624 32.9972871,5.99624 35.5441626,6.94824 C44.3983473,10.26824 50.3543634,18.86824 50.3543634,28.34824 C50.3543634,40.93224 40.1349256,51.17224 27.5761947,51.17224 M37.2207891,2.45224 C31.0571907,0.14824 24.1111666,0.14824 17.9236164,2.45224 C7.20119068,6.46824 0.000479036145,16.87624 0.000479036145,28.34824 C0.000479036145,43.58024 12.3667971,55.97224 27.5761947,55.97224 C42.7776084,55.97224 55.1447248,43.58024 55.1447248,28.34824 C55.1447248,16.87624 47.9440132,6.46824 37.2207891,2.45224" id="Fill-2" fill="#162A4C"></path>
                        <path d="M42.8181667,30.7644 L27.5680511,30.7644 C27.3764366,30.7644 27.1856206,30.7404 27.0091756,30.6916 C26.9620704,30.6836 26.9053844,30.6684 26.8582792,30.6516 C25.843521,30.3724 25.1018133,29.4444 25.1018133,28.3404 L25.1018133,15.6444 C25.1018133,14.3156 26.1708623,13.2444 27.4969941,13.2444 C28.8223274,13.2444 29.8921748,14.3156 29.8921748,15.6444 L29.8921748,25.9644 L42.8181667,25.9644 C44.1427017,25.9644 45.2133475,27.0444 45.2133475,28.3644 C45.2133475,29.6916 44.1427017,30.7644 42.8181667,30.7644 M35.5448013,6.9476 C32.9971274,5.9964 30.3233073,5.5156 27.576035,5.5156 C24.8303595,5.5156 22.1469587,5.9964 19.5920993,6.9476 C10.7379145,10.2684 4.7906808,18.8684 4.7906808,28.3476 C4.7906808,40.9324 15.0101186,51.1724 27.576035,51.1724 C40.1355643,51.1724 50.3542037,40.9324 50.3542037,28.3476 C50.3542037,18.8684 44.3981876,10.2684 35.5448013,6.9476" id="Fill-4" fill="#FFFFFF"></path>
                        <path d="M45.2133475,28.3644 C45.2133475,29.6916 44.1427017,30.7644 42.8181667,30.7644 L27.5680511,30.7644 C27.3764366,30.7644 27.1856206,30.7404 27.0091756,30.6916 C26.9620704,30.6836 26.9053844,30.6684 26.8582792,30.6516 C25.843521,30.3724 25.1018133,29.4444 25.1018133,28.3404 L25.1018133,15.6444 C25.1018133,14.3156 26.1708623,13.2444 27.4969941,13.2444 C28.8223274,13.2444 29.8921748,14.3156 29.8921748,15.6444 L29.8921748,25.9644 L42.8181667,25.9644 C44.1427017,25.9644 45.2133475,27.0444 45.2133475,28.3644" id="Fill-6" fill="#162A4C"></path>
                    </g>
                </g>
            </g>
        </g>
    </g>
</svg>